<svg xmlns="http://www.w3.org/2000/svg" width="330" height="162" viewBox="0 0 330 162"><defs><style>.a,.b{fill:#fff;}.b{opacity:0.2;isolation:isolate;}</style></defs><title>WhiteConjugation</title><ellipse class="a" cx="84.3173" cy="37.6663" rx="12.5035" ry="13.7422"/><path class="a" d="M81.5006,16.1449C69.454,19.3314,60.5761,25.969,61.6713,30.97S73.42,37.4428,85.4667,34.2562s20.9245-9.8241,19.8293-14.8254S93.5472,12.9583,81.5006,16.1449Zm3.6031,15.8439c-8.4919,2.2463-15.9231,1.5687-16.598-1.5134s5.662-7.4016,14.1539-9.6479,15.923-1.5686,16.5979,1.5135S93.5956,29.7425,85.1037,31.9888Z"/><path class="a" d="M120.0318,42.8461c-1.1362-2.3612-3.2874-3.5523-5.26-2.64A8.4464,8.4464,0,0,0,112.23,42.298,44.5269,44.5269,0,0,1,98.0813,53.3955c-8.733,4.0787-17.7339,4.7452-26.86,3.621-5.1188-.6306-9.4938-3.3313-13.1263-8.2936a40.2416,40.2416,0,0,0-4.9682-5.5872c-2.668-2.4964-5.5366-2.6967-8.478-.6432-2.7109,1.8926-4.5866,4.8477-6.03,8.335-1.2124,2.9294-2.3437,5.921-3.4595,8.9193-1.5285,4.107-3.5042,7.748-6.5083,10.0514a42.1232,42.1232,0,0,1-17.5485,8.1423c-2.0155.3993-4.0449.6745-6.0679,1.0065,6.7828,4.2386,13.6681,4.4911,20.6891,1.124a18.91,18.91,0,0,1-4.8042,2.2508c-3.5382.8247-7.1145,1.3585-10.677,1.9932-1.6083.2866-3.221.53-4.8316.7924,7.63,4.35,15.19,3.8982,22.7359-.3221-2.9872,1.7589-5.9794,3.473-9.0411,4.9243-3.0793,1.46-6.2277,2.6579-9.5614,4.0614,7.7752,2.3219,14.9992,1.1081,21.8933-3.685l-10.97,9.5075c6.9258-.1977,13.1022-3.1482,18.6259-8.5607L28.215,103.79l.1594.2976q10.0371-2.4321,17.4337-11.9782l.1845.3079-8.6281,13.8953c.0786.0155.144.0552.1961.0347,6.87-2.6982,12.4068-7.7259,15.9068-16.3152.4531-1.1122.9-2.2326,1.4035-3.3036.9157-1.9465,2.01-3.6742,3.8292-4.0475.7241-.1486,1.4543-.2431,2.1859-.3263C66.9514,68.4472,79.644,58.4732,94.6784,57.587a36.0816,36.0816,0,0,1,11.38,1.1338c-11.273,4.4077-20.132,14.201-24.1029,26.3857q3.3848-5.2182,6.763-10.4439a10.371,10.371,0,0,1,5.5754-4.63A44.7849,44.7849,0,0,0,111.6117,59.79a49.5255,49.5255,0,0,0,8.0014-9.3163A7.9923,7.9923,0,0,0,120.0318,42.8461Z"/><path class="a" d="M80.37,100.6823A42.371,42.371,0,0,1,82.848,84.4076a43.9406,43.9406,0,0,1,26.66-26.3857A44.2217,44.2217,0,0,0,59.5438,81.6558a42.4714,42.4714,0,0,0-4.1885,20.36,41.9076,41.9076,0,0,0,10.3055,25.7872,43.2437,43.2437,0,0,0,35.038,14.7085,44.3152,44.3152,0,0,0,12.4278-2.4669A42.4733,42.4733,0,0,1,80.37,100.6823Z"/><path class="a" d="M109.3281,129.2139a15.2423,15.2423,0,0,1-.6352-4.5684,11.7985,11.7985,0,0,1,1.0014-4.8135,10.7582,10.7582,0,0,1,2.6387-3.7382A11.8007,11.8007,0,0,1,120.42,113.04a9.5867,9.5867,0,0,1,7.3784,2.9444q2.7357,2.9444,2.7364,8.331a12.2753,12.2753,0,0,1-3.0909,8.71,10.3738,10.3738,0,0,1-7.9526,3.3223Q111.5024,136.3477,109.3281,129.2139Zm9.7486-12.3379q-4.1295,0-4.1294,6.3037,0,5.96,2.248,8.3066a4.1376,4.1376,0,0,0,3.1519,1.295,3.2138,3.2138,0,0,0,2.9072-1.5518,6.7324,6.7324,0,0,0,.977-3.665q0-2.1123-.1342-3.4571a17.6061,17.6061,0,0,0-.4888-2.6992,9.4891,9.4891,0,0,0-.916-2.334A3.9763,3.9763,0,0,0,119.0767,116.876Z"/><path class="a" d="M131.8545,135.6885l.3418-2.81,3.5674-1.3926V119.0742l-3.6162-1.6367.4643-2.9805,8.5757-.831.66.709-.4888,2.81.3174.0733q3.5185-3.86,7.1831-3.86a5.5794,5.5794,0,0,1,4.3979,1.7588,7.6584,7.6584,0,0,1,1.5635,5.2285v11.1416l3.5674,1.2217-.3911,2.9805H147.1733l.1221-2.81,1.6856-1.3926v-8.0869q0-4.374-3.2979-4.374a5.4053,5.4053,0,0,0-3.958,1.6621v10.7988l3.3228,1.2217-.5376,2.9805Z"/><path class="a" d="M158.1187,141.8945l1.1728-.88a11.3872,11.3872,0,0,0,2.04-1.9179,17.4874,17.4874,0,0,0,1.1363-1.6856,8.8246,8.8246,0,0,0,.8061-1.7715,15.1857,15.1857,0,0,0,.6841-4.7158V119.3682l-3.6157-2.0528.6352-3.2,7.8672-.5381,1.0264.9532v17.4931a12.2867,12.2867,0,0,1-6.4507,11.2881,26.365,26.365,0,0,1-2.5405,1.2949l-1.1729.4151Zm8.3676-30.9316a4.5234,4.5234,0,0,1-3.2246-1.05,3.3821,3.3821,0,0,1-1.1118-2.5537,3.0884,3.0884,0,0,1,1.2095-2.4922,4.92,4.92,0,0,1,3.2129-.9893,4.7781,4.7781,0,0,1,3.1884,1.002,3.133,3.133,0,0,1,1.1846,2.4922,3.29,3.29,0,0,1-1.1728,2.541A4.7539,4.7539,0,0,1,166.4863,110.9629Z"/><path class="a" d="M182.1475,129.6289a2.7605,2.7605,0,0,0,2.456,1.0508,4.92,4.92,0,0,0,3.3711-1.5391v-9.65l-3.3711-1.4414.5371-3.665,7.9649-.8555.9043.9531v14.0245a3.6027,3.6027,0,0,0,.6347,2.4423,5.1929,5.1929,0,0,0,2.37,1.1729l.88.2441-.3916,3.0791a13.77,13.77,0,0,1-4.7031.9532,4.9619,4.9619,0,0,1-3.2373-.9287,3.2593,3.2593,0,0,1-1.124-2.6631v-.293l-.3174-.0488a8.1681,8.1681,0,0,1-2.9688,2.8828,7.733,7.733,0,0,1-3.8232,1.001,5.6806,5.6806,0,0,1-4.5566-1.6729q-1.43-1.6743-1.4287-5.51v-9.8457l-3.2012-1.955.5869-3.2247,7.72-.5136.9776.9531v11.5078A6.5037,6.5037,0,0,0,182.1475,129.6289Z"/><path class="a" d="M199.2383,142.248a4.2415,4.2415,0,0,1-.8555-2.5771,3.5757,3.5757,0,0,1,1.1856-2.59,6.9721,6.9721,0,0,1,2.6992-1.6856v-.293a3.7128,3.7128,0,0,1-2.3213-3.5429,3.5019,3.5019,0,0,1,1.417-2.4922,7.774,7.774,0,0,1,3.0058-1.7344l-.0244-.2939a6.1446,6.1446,0,0,1-2.6386-2.2471,6.3436,6.3436,0,0,1-1.3682-3.9092,7.0524,7.0524,0,0,1,2.5527-5.3506,8.8457,8.8457,0,0,1,6.169-2.3213,10.786,10.786,0,0,1,5.9863,1.5391l5.4971-.5859.61.708-1.0254,3.7138-.6113.0489-2.6143-.83-.0488.2441a6.8734,6.8734,0,0,1-.83,6.4014,8.5081,8.5081,0,0,1-7.33,3.4932,10.814,10.814,0,0,1-1.9053-.22,2.71,2.71,0,0,0-.9287,1.6856q0,1.4912,3.42,1.49h3.3232a10.5174,10.5174,0,0,1,5.6075,1.2217q1.9175,1.2231,1.9179,4.41,0,3.1889-3.665,5.8886a14.6655,14.6655,0,0,1-8.9424,2.6992,15.2108,15.2108,0,0,1-6.01-1.124A5.2394,5.2394,0,0,1,199.2383,142.248Zm4.69-4.2626q0,3.64,5.168,3.64,5.1664,0,5.167-3.4443a2.0479,2.0479,0,0,0-1.1114-2.0039,9.2986,9.2986,0,0,0-3.8486-.5616h-4.5195a3.2681,3.2681,0,0,1-.2442.4151A3.3526,3.3526,0,0,0,203.9287,137.9854Zm4.5693-22.2823q-2.7861,0-2.7851,4.6905,0,3.3969,2.4189,4.74a1.7091,1.7091,0,0,0,.708.2441,2.6805,2.6805,0,0,0,2.3819-1.0136,8.0274,8.0274,0,0,0,.1347-6.2422Q210.2812,115.7037,208.498,115.7031Z"/><path class="a" d="M221.959,131.34a6.6518,6.6518,0,0,1,2.8955-5.4121q2.8961-2.2353,8.3193-2.4306v-1.833a6.7583,6.7583,0,0,0-.9531-3.7129,2.851,2.851,0,0,0-2.48-1.4912,1.8377,1.8377,0,0,0-1.9424,1.0752,17.4816,17.4816,0,0,0-.66,4.1777q-3.2739,0-4.1045-1.3438a3.1846,3.1846,0,0,1-.3906-1.7216,3.62,3.62,0,0,1,1.5878-2.4678,14.04,14.04,0,0,1,8.3311-3.0664q6.3531,0,6.3525,7.501v8.5263a4.629,4.629,0,0,0,.086,1.209q.0849.2081.1953.501a.75.75,0,0,0,.2685.3916c.1055.0644.24.1543.4034.2685a3.6774,3.6774,0,0,0,1.3681.4395l.9532.1709-.4649,3.1279a6.8,6.8,0,0,1-3.6523.9522,4.1352,4.1352,0,0,1-2.9688-.8545,5.4717,5.4717,0,0,1-1.2461-2.7119l-.2929-.0733a6.0189,6.0189,0,0,1-2.4063,2.541,7.42,7.42,0,0,1-4.1045,1.1719,5.256,5.256,0,0,1-3.6894-1.2822A4.6957,4.6957,0,0,1,221.959,131.34Zm5.7666-1.6865a2.3721,2.3721,0,0,0,.623,1.6133,2.4693,2.4693,0,0,0,1.9541.708,4.4007,4.4007,0,0,0,2.8711-1.4414v-4.9355Q227.7246,126.503,227.7256,129.6533Z"/><path class="a" d="M253.1719,130.5088a3.2317,3.2317,0,0,0,2.5166.9043,6.5757,6.5757,0,0,0,3.4082-1.0264l.6113,2.2725a8.755,8.755,0,0,1-2.9687,2.5654,9.7245,9.7245,0,0,1-4.7159,1.0254,5.4513,5.4513,0,0,1-4.3-1.6367q-1.4531-1.6362-1.4287-5.7168l.0733-10.8721h-2.7608v-2.4678a24.6691,24.6691,0,0,0,6.23-6.3037h2.6387v5.375h6.792l-.2442,3.47h-6.6211l-.0488,9.3818A4.4787,4.4787,0,0,0,253.1719,130.5088Z"/><path class="a" d="M260.5625,135.6885l.2451-3.127,3.7373-1.1V119.1973l-3.64-2.0039.5371-3.0538,8.0137-.5869.9775.9776v16.9316l3.9336,1.124-.2686,3.1026Zm6.585-25.0186a4.5713,4.5713,0,0,1-3.1768-.9892,3.16,3.16,0,0,1-1.0869-2.4307,2.8616,2.8616,0,0,1,1.1728-2.3584,5.8158,5.8158,0,0,1,6.3038.0244,2.8862,2.8862,0,0,1,1.1972,2.3584,3.054,3.054,0,0,1-1.1611,2.4063A4.8593,4.8593,0,0,1,267.1475,110.67Z"/><path class="a" d="M275.7588,129.2139a15.2417,15.2417,0,0,1-.6358-4.5684,11.7974,11.7974,0,0,1,1.002-4.8135,10.7647,10.7647,0,0,1,2.6387-3.7382,11.8,11.8,0,0,1,8.0869-3.0538,9.5864,9.5864,0,0,1,7.3789,2.9444q2.7363,2.9444,2.7363,8.331a12.2756,12.2756,0,0,1-3.0908,8.71,10.3742,10.3742,0,0,1-7.9521,3.3223Q277.9336,136.3477,275.7588,129.2139Zm9.748-12.3379q-4.1294,0-4.1289,6.3037,0,5.96,2.2481,8.3066a4.1384,4.1384,0,0,0,3.1513,1.295,3.2122,3.2122,0,0,0,2.9073-1.5518,6.7335,6.7335,0,0,0,.9775-3.665q0-2.1123-.1338-3.4571a17.5955,17.5955,0,0,0-.4892-2.6992,9.4931,9.4931,0,0,0-.9161-2.334A3.9763,3.9763,0,0,0,285.5068,116.876Z"/><path class="a" d="M298.2852,135.6885l.3427-2.81,3.5664-1.3926V119.0742l-3.6152-1.6367.4639-2.9805,8.5752-.831.66.709-.4883,2.81.3174.0733q3.5186-3.86,7.1826-3.86a5.5778,5.5778,0,0,1,4.3975,1.7588,7.6534,7.6534,0,0,1,1.5645,5.2285v11.1416l3.5664,1.2217-.3907,2.9805H313.6045l.1221-2.81,1.6855-1.3926v-8.0869q0-4.374-3.2978-4.374a5.4051,5.4051,0,0,0-3.958,1.6621v10.7988l3.3222,1.2217-.5371,2.9805Z"/><path class="a" d="M95.3173,93.6022c.5506-.5927,1.1055-1.1815,1.651-1.7788,1.3954-1.528,2.7851-3.0612,4.1838-4.586a.4742.4742,0,0,1,.3119-.1374q2.662-.0124,5.3242,0a.449.449,0,0,1,.3074.1383c.7626.9206,1.5153,1.85,2.2687,2.7778q1.2123,1.4935,2.422,2.9894c.0544.0671.1146.1294.2.2252.1861-.2159.3631-.4141.5324-.6187q1.6437-1.987,3.2849-3.9762c.4-.4841.7954-.9726,1.2106-1.4435a.565.565,0,0,1,.3757-.1713c1.7922-.011,3.5844-.0046,5.3767-.0119a.43.43,0,0,1,.3851.21q1.5259,2.0789,3.06,4.1512c.5132.694,1.03,1.3849,1.5733,2.114-.58.1453-1.13.265-1.6679.4254a.4225.4225,0,0,1-.5409-.188c-.8417-1.1468-1.696-2.2844-2.546-3.4251-.0712-.0956-.1426-.1909-.2607-.3489-.0265.2466-.05.422-.0634.5983-.0274.3572-.02.72-.0822,1.0708a1.46,1.46,0,0,0,.2106.9694q1.41,2.7323,2.8034,5.4731a1.87,1.87,0,0,1,.0706.1943c-.1177.0055-.21.0133-.3014.0134-.8568.001-1.7137.01-2.57-.0053-.25-.0046-.3053.0791-.304.3135.0091,1.5736.0046,3.1474.0046,4.721,0,.3481,0,.3477.3523.3594.0507.0016.1012.0092.1651.0153v.5667h-2.4445v-.3087c0-1.7923-.0049-3.5846.0053-5.3768.0013-.2369-.0693-.2939-.2963-.29-.6525.0116-.6522.0019-.6523.6427q0,2.5179-.0015,5.0358v.2978h-2.4482v-.546a.2242.2242,0,0,1,.0671-.0313c.4745-.0415.4748-.0411.4748-.5305,0-1.53-.0046-3.06.0048-4.59.0014-.2236-.07-.279-.2829-.2774-1.1714.0088-2.343.0041-3.5145.0041h-.3451c.1644-.2947.2974-.5427.4391-.7856q1.5238-2.6116,3.0486-5.2228a.441.441,0,0,0,.0758-.2426c-.0576-.5374-.1286-1.0733-.2035-1.6757-.31.3513-.5789.6552-.8465.96-.9666,1.1028-1.9309,2.2078-2.9037,3.3051a.3347.3347,0,0,1-.2786.1058,2.2237,2.2237,0,0,0-1.559.1.6132.6132,0,0,1-.7479-.1756c-.9769-1.0453-1.9846-2.0617-2.9814-3.0882a1.5026,1.5026,0,0,0-.1232-.0954c-.008.1371-.0187.2343-.0187.3315q-.0012,3.1082,0,6.2161c0,.3489,0,.3489-.36.3492-.6732.0006-.6732.0006-.6732.6627,0,1.4688.0042,2.9376-.0045,4.4063-.0014.2277.0412.3547.298.31.2033-.0356.2644.065.2446.2538-.0116.11-.0021.2225-.0021.3519h-2.4677V98.3651h-.9221v5.97h-2.4735v-.5969h.497V98.349c-.1564,0-.3108,0-.4651,0-.3593-.0012-.36-.0014-.36-.35q0-3.1736,0-6.3472V91.28L96.58,94.9091l-1.2628-1.2545Z"/><path class="a" d="M128.155,85.3141c-.056.1443-.1066.291-.1688.4326a1.8237,1.8237,0,0,1-1.5054.989c-.2121.0411-.4314.045-.6867.07a6.4243,6.4243,0,0,0-.9118-3.709,5.0267,5.0267,0,0,1-4.9821,3.77,4.6455,4.6455,0,0,1-3.1606-1.2082,5.0328,5.0328,0,0,1-1.6711-2.9628,3.91,3.91,0,0,0-1.0881,1.929c-.1539.7-.195,1.4245-.287,2.1492a1.9745,1.9745,0,0,1-1.7115-1.168,2.6849,2.6849,0,0,1,1.254-3.38,9.4308,9.4308,0,0,1,1.5483-.6022.3474.3474,0,0,0,.2662-.3218,13.2331,13.2331,0,0,1,.6233-2.6415,3.5433,3.5433,0,0,1,2.5822-2.237,5.3889,5.3889,0,0,1,4.6132.8372,5.0905,5.0905,0,0,1,1.9757,3.3142,3.8638,3.8638,0,0,1,.0977.5932.3327.3327,0,0,0,.299.3761,3.55,3.55,0,0,1,1.7.9866,3.9718,3.9718,0,0,1,1.15,1.9875,1.1329,1.1329,0,0,0,.0637.1659Zm-10.5011-4.868c-.0531.0977-.0931.17-.1323.2434a2.5635,2.5635,0,0,1-.8687,1.0909.444.444,0,0,0-.2276.5322,3.658,3.658,0,0,0,3.3242,3.1381,3.6113,3.6113,0,0,0,3.841-3.4989c.0018-.28-.0388-.301-.3242-.2852-.8714.0484-1.7432.1022-2.6154.118-.5578.01-.5583-.0183-.5583-.5625q0-.633,0-1.266a.4768.4768,0,0,0-.1782.1763c-.332.4693-.6463.953-1.0063,1.4a2.1071,2.1071,0,0,1-.605.4332c-.1307.0755-.2293.0253-.2308-.1561a4.1741,4.1741,0,0,0-.0448-.5478A1.2606,1.2606,0,0,0,117.6539,80.4461Z"/><path class="a" d="M103.5651,77.7255c1.0883.15,2.1823.2673,3.2632.4588a1.6072,1.6072,0,0,1,1.5258,1.85,21.5762,21.5762,0,0,1-.1892,2.7952,4.2854,4.2854,0,0,1-4.7957,3.5049,4.3557,4.3557,0,0,1-3.725-3.9946,18.3729,18.3729,0,0,0-.2582-1.837,1.1,1.1,0,0,1,.2878-1.0663,6.0581,6.0581,0,0,1,3.0716-1.641,1.8874,1.8874,0,0,1,.2608-.0253c.1833-.0039.3668-.0012.55-.0012Zm-.0334,3.4231c-.34.1665-.6177.29-.8833.4361a.8894.8894,0,0,1-.6931.09,4.4775,4.4775,0,0,0-.8037-.041c-.1687-.01-.218.0638-.2384.2254a3.2086,3.2086,0,0,0,2.902,3.5051,3.1345,3.1345,0,0,0,3.1232-1.9345,2.9022,2.9022,0,0,0,.1925-1.7689,7.152,7.152,0,0,0-3.82.1637l-.0383-.0715Z"/><rect class="a" x="90.5752" y="104.2291" width="39.0302" height="2.8488"/><polygon class="a" points="141.552 104.955 139.383 104.955 138.351 97.079 141.553 97.079 141.552 104.955"/><polygon class="a" points="149.337 104.955 147.168 104.955 146.136 97.079 149.337 97.079 149.337 104.955"/><polygon class="b" points="149.276 66.393 140.515 66.393 144.816 60.512 145.125 60.088 145.28 59.876 145.67 60.512 149.276 66.393"/><path class="a" d="M142.1053,106.9344l-6.9937,0v-.0833a2.646,2.646,0,0,1,2.7221-2.5627h4.2717Z"/><path class="a" d="M149.89,106.9344l-6.9937,0v-.0833a2.646,2.646,0,0,1,2.722-2.5627H149.89Z"/><path class="a" d="M146.6575,101.0615l-3.0212-20.475a.2691.2691,0,0,0-.518-.0343l-2.024,6.6615a3.8813,3.8813,0,0,0-.1477,1.5463l1.6274,12.0389a.7631.7631,0,0,1-.7138.82c-.0157.0015-.0314.0025-.0472.0031l-2.0718.0633a.787.787,0,0,1-.8133-.6093L136.3041,88.06a7.0061,7.0061,0,0,1-.092-2.1926l1.9848-17.141,9.8862.3369.0234.0444c2.986,5.6465,2.5039,18.2091,2.0376,30.3581l-.0581,1.5193a.7728.7728,0,0,1-.7952.7225l-1.8445,0h0A.7853.7853,0,0,1,146.6575,101.0615Z"/><ellipse class="a" cx="146.2637" cy="47.4982" rx="4.3453" ry="4.0909"/><path class="a" d="M138.0481,69.7212a.7161.7161,0,0,1-.1706-.6158L140.2952,56.84l.573-1.1477a5.3363,5.3363,0,0,1,5.4881-2.8008h0a5.0328,5.0328,0,0,1,4.5168,5.5978,4.7347,4.7347,0,0,1-.2692,1.0258L147.9954,66.27l.4442,2.8642a.758.758,0,0,1-.6728.85.85.85,0,0,1-.115.0078H138.66A.8145.8145,0,0,1,138.0481,69.7212Z"/><path class="a" d="M157.6412,77.1763a1.7888,1.7888,0,0,1-1.4214-2.1477,1.7119,1.7119,0,0,1,.1043-.3l-7.0064-14.9025,4.008-.95,5.6268,14.9475a1.75,1.75,0,0,1,.8359,2.4194,1.9526,1.9526,0,0,1-2.1472.9335Z"/><path class="a" d="M149.5565,62.497a.8191.8191,0,0,1-.468-.5021l-1.225-3.8581a2.1744,2.1744,0,0,1,1.1416-2.9621,2.4324,2.4324,0,0,1,3.1395,1.0611l2.369,3.3683a.7741.7741,0,0,1-.24,1.1119.86.86,0,0,1-.1091.0576l-3.8981,1.7179A.9.9,0,0,1,149.5565,62.497Z"/><path class="a" d="M125.0772,43.4884a1.8145,1.8145,0,0,0,1.6509,1.9969,2.014,2.014,0,0,0,.3349.0113l12.4406,11.332,2.33-3.2139L128.8723,43.4863a1.89,1.89,0,0,0-2.1238-1.5733A1.8577,1.8577,0,0,0,125.0772,43.4884Z"/><path class="a" d="M137.1736,55.0711l3.0574-2.852a.89.89,0,0,1,1.2051.0052.8088.8088,0,0,1,.0813.09l2.541,3.2554a2.1371,2.1371,0,0,1-.0356,3.1509,2.4723,2.4723,0,0,1-3.3365-.0236l-3.4238-2.4134a.7718.7718,0,0,1-.171-1.1231.82.82,0,0,1,.0821-.0889Z"/><path class="a" d="M145.0534,46.96c-.892.9583-2.1172,2.0178-3.4243,1.5423a1.9419,1.9419,0,0,1-1.2544-2.0228c.1411-1.5521,1.4239-2.53,2.6829-3.3465a10.3571,10.3571,0,0,1,5.4563-2.0363c1.9874-.0029,4.0992,1.2995,4.2486,3.1652.12,1.5-.9924,3.0415-.3948,4.437.6015,1.4044,2.5469,1.75,4.1511,1.64s3.3428-.4411,4.7272.33c1.7661.9834,2.0592,3.4325,1.1168,5.1485a10.0212,10.0212,0,0,1-4.583,3.7284c-2.4075,1.189-5.0977,2.1579-7.79,1.7993s-5.28-2.4487-5.2254-5.0076a8.1018,8.1018,0,0,1,.9442-3.0969,7.3938,7.3938,0,0,0,.8832-3.1087,2.8593,2.8593,0,0,0-1.215-2.34.7193.7193,0,0,1-.33-.8122Z"/><circle class="a" cx="118.7911" cy="43.298" r="6.4662"/></svg>